<?xml version="1.0" standalone="no"?>
<!DOCTYPE svg PUBLIC "-//W3C//DTD SVG 20010904//EN"
 "http://www.w3.org/TR/2001/REC-SVG-20010904/DTD/svg10.dtd">
<svg version="1.0" xmlns="http://www.w3.org/2000/svg"
 width="1280.000000pt" height="880.000000pt" viewBox="0 0 1280.000000 880.000000"
 preserveAspectRatio="xMidYMid meet">
<metadata>
Created by potrace 1.15, written by Peter Selinger 2001-2017
</metadata>
<g transform="translate(0.000000,880.000000) scale(0.100000,-0.100000)"
fill="#000000" stroke="none">
<path d="M1760 8690 c0 -71 -4 -110 -11 -110 -13 0 -554 68 -590 74 l-26 5 -6
-122 c-3 -67 -3 -125 1 -129 6 -6 572 -78 615 -78 16 0 17 -43 17 -524 0 -289
-3 -527 -7 -529 -7 -4 -431 31 -580 47 l-53 6 0 -128 0 -128 288 -23 c158 -12
299 -24 315 -27 l27 -6 0 -310 0 -311 -127 7 c-71 3 -172 9 -225 13 l-98 6 0
-121 0 -122 28 -1 c15 0 115 -6 222 -12 l195 -12 3 -234 c1 -129 -1 -238 -5
-241 -5 -4 -129 -1 -278 6 -148 7 -289 13 -312 13 l-43 1 0 -124 0 -124 133
-6 c72 -4 215 -10 317 -14 l185 -7 0 -62 c-1 -35 -2 -164 -3 -288 l-2 -225
-225 0 -226 0 3 -117 3 -118 223 -3 222 -2 0 -195 0 -195 -320 0 -320 0 0
-120 0 -120 320 0 320 0 0 -244 0 -243 -92 -7 c-50 -3 -151 -6 -224 -6 l-133
0 -3 -112 c-2 -62 -1 -117 1 -122 2 -5 96 -7 223 -3 l218 6 0 -79 0 -80 -82
-1 c-161 -1 -543 -18 -565 -24 -33 -10 -41 -46 -14 -63 19 -13 21 -23 21 -135
l0 -120 123 6 c67 4 211 10 320 13 192 7 197 7 197 -13 0 -18 -9 -20 -122 -26
-66 -4 -158 -7 -202 -7 -134 0 -126 8 -126 -132 l0 -120 108 6 c59 3 160 9
225 12 l118 6 -3 -128 -3 -129 -295 -17 c-162 -9 -303 -17 -312 -17 -16 -1
-18 -12 -18 -81 0 -48 -4 -80 -10 -80 -20 0 -22 -31 -5 -50 11 -12 31 -20 52
-20 22 0 33 -5 33 -14 0 -8 13 -27 29 -43 21 -21 38 -28 67 -28 33 0 40 -4 42
-22 5 -32 42 -31 42 1 0 20 6 24 46 30 26 3 75 6 110 6 57 0 64 -2 64 -20 0
-15 7 -20 25 -20 20 0 25 5 25 25 0 21 5 25 28 25 15 0 124 7 242 15 l214 14
30 -27 c16 -15 47 -44 69 -64 40 -39 56 -45 72 -29 12 11 201 18 211 8 13 -12
36 -7 50 10 7 10 14 44 14 76 l0 57 54 0 c29 0 74 3 100 6 45 7 46 6 46 -20 0
-19 5 -26 20 -26 14 0 20 7 20 24 0 21 6 24 50 30 57 8 65 26 25 58 -23 18
-25 26 -25 104 l0 84 -65 0 -65 0 0 29 0 29 -80 -5 -80 -6 0 27 0 27 88 -6
c48 -3 80 -2 72 2 -11 5 -3 11 25 20 27 9 31 11 10 8 -16 -3 -67 -8 -112 -12
l-83 -6 0 82 0 81 38 -15 c63 -27 222 -65 270 -65 56 0 48 -12 -28 -40 -30
-11 -41 -18 -25 -14 17 3 54 16 84 30 68 31 79 24 14 -10 -26 -14 -43 -25 -38
-25 6 -1 30 11 55 25 25 15 68 33 95 40 28 7 38 12 23 10 -16 -2 -28 0 -27 3
0 3 32 30 70 59 69 52 72 53 132 50 l61 -3 11 -80 c24 -168 99 -242 257 -252
65 -5 78 -9 78 -23 0 -11 -11 -20 -30 -24 -17 -3 -30 -10 -30 -16 0 -13 26
-13 51 0 13 7 19 7 19 1 0 -20 58 -40 134 -47 l78 -7 -7 -121 c-8 -170 -12
-186 -37 -186 -11 0 -59 -13 -107 -29 -117 -41 -160 -49 -303 -61 -68 -6 -131
-13 -140 -16 -23 -7 -25 -64 -3 -64 8 0 15 -4 15 -10 0 -5 -7 -10 -15 -10 -18
0 -29 -40 -20 -69 8 -25 40 -28 53 -5 8 15 10 15 15 0 16 -42 63 2 51 49 -4
18 -13 25 -29 25 -13 0 -26 -6 -28 -12 -3 -7 -6 -3 -6 9 -1 22 1 22 157 25 86
2 159 2 161 1 2 -1 -13 -8 -32 -17 -27 -11 -36 -21 -39 -43 -2 -16 3 -33 12
-40 12 -10 9 -12 -22 -13 -32 0 -39 -4 -44 -27 -11 -44 6 -58 67 -55 69 5 80
23 55 83 -5 12 4 18 44 27 27 6 92 27 144 47 105 39 133 42 226 19 36 -9 119
-24 185 -34 66 -10 108 -18 94 -19 -33 -1 -79 -37 -79 -61 0 -24 36 -49 60
-43 31 8 54 42 52 74 -3 35 26 50 83 43 21 -2 44 1 51 7 19 15 18 68 -1 75
-19 8 -19 24 0 24 21 0 20 56 -1 64 -9 3 -75 6 -148 6 -91 0 -150 5 -191 16
-33 9 -84 22 -114 29 -38 8 -56 17 -61 31 -4 11 -9 84 -11 164 -4 143 -4 144
19 156 37 18 45 31 51 75 l6 42 110 1 c151 1 201 28 249 133 33 75 -9 155 -93
174 -47 11 -168 -2 -298 -30 -46 -10 -85 -15 -88 -13 -3 3 -5 15 -5 28 0 21 4
22 138 28 110 5 1044 25 1195 26 l37 0 0 -344 c0 -288 2 -345 15 -356 8 -6 49
-13 92 -16 43 -2 79 -8 81 -14 5 -14 36 -12 69 5 39 20 397 68 450 60 35 -5
43 -3 52 14 7 12 11 118 11 291 l0 271 50 50 c32 32 56 49 66 45 13 -5 14 -84
12 -618 -2 -337 -7 -619 -11 -626 -7 -10 -12 -10 -22 -2 -19 16 -38 -21 -29
-55 6 -24 10 -26 44 -20 32 5 38 3 43 -14 6 -24 37 -29 37 -6 0 22 175 22 184
0 8 -22 37 -18 43 6 5 17 12 20 47 17 36 -3 41 0 44 19 2 12 -2 31 -8 43 -9
17 -14 19 -26 10 -11 -10 -15 -8 -21 6 -5 11 -8 294 -8 629 l0 610 535 -4
c496 -3 537 -5 565 -21 35 -22 93 -80 79 -80 -5 0 -38 -5 -74 -10 -42 -6 -78
-6 -103 1 -58 15 -131 15 -160 0 -31 -16 -37 -60 -12 -81 8 -7 15 -20 15 -29
0 -38 114 -90 201 -91 31 0 81 -5 110 -11 30 -5 69 -10 86 -11 28 0 31 -2 23
-18 -12 -22 -2 -79 17 -102 8 -9 30 -19 50 -23 l35 -6 -7 -127 c-9 -184 -7
-179 -66 -191 -28 -6 -65 -11 -84 -11 -23 0 -39 -7 -48 -20 -19 -27 -118 -48
-265 -56 -118 -7 -142 -17 -142 -55 0 -10 6 -19 14 -19 11 0 14 -11 13 -42 -2
-41 -1 -43 40 -57 50 -18 73 -5 73 39 0 22 -6 30 -30 39 -16 5 -30 11 -30 13
0 2 77 4 170 5 94 1 170 -2 170 -7 0 -5 8 -11 18 -14 14 -5 17 -14 14 -41 -3
-27 -1 -35 12 -35 19 0 21 -11 5 -27 -16 -16 -3 -61 19 -67 67 -19 81 -18 97
8 21 32 6 62 -37 74 l-32 8 51 26 c28 15 67 38 88 52 45 31 39 31 167 6 57
-11 150 -25 208 -32 l105 -11 -3 -49 c-4 -43 -2 -48 17 -48 12 0 21 5 21 10 0
16 22 12 36 -7 17 -24 29 -10 29 37 0 48 -12 61 -31 36 -11 -16 -14 -17 -14
-4 0 9 7 18 15 22 8 3 15 16 15 29 0 28 -51 70 -74 61 -21 -8 -20 13 0 24 12
7 15 17 10 36 l-6 26 -115 0 c-95 0 -127 4 -191 25 -42 14 -87 25 -101 25 -33
0 -39 23 -47 176 l-7 132 33 5 c155 26 188 37 188 62 0 19 8 23 91 40 47 10
91 27 119 46 51 35 94 100 85 129 -4 12 3 27 19 43 14 15 33 52 42 86 13 45
22 61 35 61 9 0 20 -6 22 -12 4 -10 6 -10 6 0 2 29 29 10 33 -23 4 -38 -7 -47
-17 -14 -4 11 -9 18 -12 15 -3 -3 2 -17 12 -32 22 -34 32 -168 15 -189 -9 -11
-9 -15 -1 -15 8 0 11 -55 11 -184 0 -101 2 -191 5 -198 5 -11 30 -13 125 -10
85 3 120 1 120 -7 0 -15 33 -14 48 1 7 7 12 8 12 2 0 -7 39 -9 111 -6 82 3
117 1 136 -9 24 -13 27 -12 52 21 14 18 36 45 48 58 23 25 23 29 23 304 l0
278 108 -5 c146 -8 903 -35 969 -35 l53 0 0 -130 c0 -130 0 -130 -22 -126 -13
3 -86 7 -163 11 -77 3 -173 8 -212 11 l-73 6 0 -32 0 -33 -65 5 -65 6 0 -89
c0 -83 -1 -89 -25 -105 -42 -28 -32 -50 24 -58 41 -5 50 -10 53 -29 2 -12 11
-23 21 -25 13 -3 17 3 17 24 l0 27 68 -6 c37 -4 84 -7 105 -7 33 0 37 -3 37
-25 0 -20 5 -25 25 -25 18 0 25 5 25 20 0 25 -6 25 397 0 476 -29 461 -28 465
-53 2 -14 11 -23 26 -25 18 -3 22 1 22 21 0 25 0 25 88 20 118 -6 130 -9 134
-36 4 -30 42 -30 46 1 3 18 10 22 38 22 42 0 74 15 74 35 0 8 7 15 15 15 10 0
15 7 13 18 -2 12 5 18 22 20 52 6 70 13 70 27 0 10 10 15 33 15 118 0 972 -41
1017 -50 105 -19 100 -30 100 214 0 422 -22 3171 -26 3175 -4 5 -920 -16
-1141 -25 l-143 -6 0 -554 0 -554 -250 0 -250 0 0 195 0 195 220 0 220 0 0
121 0 120 -219 -3 -219 -3 -7 240 c-4 132 -5 263 -3 290 l3 50 295 11 c162 7
305 12 318 13 22 1 22 4 22 120 0 66 -4 122 -9 125 -8 5 -299 -5 -533 -19
l-98 -6 0 240 0 239 48 6 c26 3 106 8 177 11 72 3 151 8 177 11 l47 6 -6 116
c-3 65 -7 118 -8 120 -2 3 -298 -15 -382 -23 l-53 -5 0 315 c0 173 1 315 3
315 2 0 140 11 307 25 167 14 308 25 312 25 4 0 8 54 8 120 0 99 -3 122 -15
126 -8 4 -147 -6 -308 -20 -161 -14 -298 -26 -305 -26 -9 0 -12 114 -12 525 0
289 1 525 3 526 1 0 142 17 312 38 l310 37 3 122 c2 92 -1 124 -10 127 -7 3
-149 -12 -315 -33 l-303 -38 0 113 0 113 -255 0 -255 0 0 -144 0 -145 -42 -6
c-24 -3 -268 -28 -543 -55 -934 -93 -2069 -161 -2892 -174 l-293 -4 0 189 c0
110 -4 189 -9 189 -5 0 -11 12 -13 28 l-3 27 -252 3 -253 2 0 -30 c0 -16 -4
-30 -10 -30 -6 0 -10 -70 -10 -189 l0 -188 -302 4 c-799 11 -1924 81 -2900
178 -300 30 -553 55 -562 55 -14 0 -16 19 -16 145 l0 145 -255 0 -255 0 0
-110z m4670 -340 l0 -80 -175 0 -175 0 0 80 0 80 175 0 175 0 0 -80z m140 0
l0 -80 -55 0 -55 0 0 80 0 80 55 0 55 0 0 -80z m3803 -172 c4 -46 7 -280 7
-520 l0 -438 -50 0 -50 0 0 198 c0 109 -3 341 -7 514 -7 353 -13 324 63 327
l31 1 6 -82z m-4039 -250 c3 -62 8 -285 12 -495 l6 -383 -97 0 -97 0 7 488 c4
268 9 490 12 495 2 4 37 7 78 7 l73 0 6 -112z m4044 -1200 l-3 -253 -195 -12
c-526 -32 -1611 -79 -2040 -88 -146 -3 -289 -8 -317 -11 l-53 -5 0 -55 c0 -47
-2 -54 -20 -54 -17 0 -20 7 -20 53 l0 52 -1405 0 -1405 0 0 -52 c0 -46 -3 -53
-20 -53 -16 0 -19 8 -22 58 l-3 57 -265 7 c-597 15 -2163 86 -2308 104 -39 5
-42 7 -42 36 l0 30 87 -6 c49 -3 142 -8 208 -11 66 -3 280 -14 475 -25 769
-42 1452 -66 2285 -80 336 -5 660 -10 720 -12 l110 -2 3 207 2 207 105 0 105
0 2 -207 3 -208 125 3 c69 1 382 7 695 12 800 14 1518 39 2315 80 206 11 443
22 525 25 83 3 174 8 203 11 l52 5 0 214 0 214 33 4 c75 9 68 35 65 -245z
m-5460 -926 l2 -222 -26 0 -27 0 6 98 c4 53 7 155 7 225 0 117 2 128 18 125
15 -3 17 -23 20 -226z m2852 -3 c0 -212 -1 -219 -20 -219 -19 0 -20 7 -20 219
0 216 4 240 33 224 4 -2 7 -103 7 -224z m-2852 -560 l3 -106 337 -6 c435 -9
1714 -9 2140 0 l332 6 0 109 c0 101 1 108 20 108 19 0 20 -7 20 -110 l0 -110
63 0 c739 3 1937 26 2405 46 l152 7 0 -50 0 -50 -292 -7 c-606 -14 -1241 -26
-1775 -32 l-553 -7 0 -119 c0 -111 -1 -118 -20 -118 -18 0 -20 8 -22 115 l-3
116 -1403 2 -1402 2 0 -117 0 -118 -25 0 -25 0 0 118 0 119 -537 7 c-495 6
-931 14 -1765 32 l-318 7 0 48 0 49 68 0 c37 0 157 -5 267 -10 265 -12 1080
-28 1748 -35 l537 -5 0 103 c0 107 3 120 30 115 12 -3 16 -23 18 -109z m7412
-198 c0 -11 -5 -23 -10 -26 -6 -4 -8 -9 -6 -13 7 -11 -47 -11 -68 0 -16 9 -18
7 -13 -6 9 -24 -7 -19 -37 10 -21 22 -26 23 -26 10 0 -13 -5 -16 -19 -11 -11
3 -22 1 -26 -5 -8 -13 -61 -13 -86 0 -13 7 -19 7 -19 1 0 -6 -13 -8 -32 -4
-22 4 -29 3 -24 -5 11 -19 -19 -14 -59 8 -43 24 -52 25 -34 3 15 -18 17 -18
-51 3 -16 5 -19 3 -14 -10 8 -20 0 -20 -31 0 -13 9 -29 13 -34 10 -5 -4 -28
-2 -50 3 -28 6 -41 5 -44 -3 -3 -7 -10 -6 -22 4 -14 11 -19 12 -22 3 -3 -7
-16 -13 -29 -13 -19 0 -24 5 -24 24 l0 23 227 2 c125 1 229 4 232 7 2 2 76 4
163 4 150 0 158 -1 158 -19z m-603 -101 c-6 -23 -3 -24 24 -10 12 7 19 7 19 1
0 -6 15 -4 35 5 28 11 35 12 35 1 0 -7 -5 -18 -12 -25 -8 -8 -8 -12 -1 -12 6
0 14 7 17 16 3 9 12 14 18 12 7 -3 24 1 38 9 15 8 26 9 28 3 2 -6 13 -4 25 5
12 8 32 15 45 15 20 0 22 -3 13 -14 -10 -12 -8 -14 12 -12 13 2 29 6 35 10 5
3 12 0 15 -6 3 -10 9 -10 27 1 20 12 25 11 35 -3 15 -20 34 -21 41 -1 10 24
33 18 27 -7 -4 -20 -3 -21 7 -5 11 17 60 24 60 8 0 -4 11 -6 25 -3 20 3 25 0
25 -17 0 -20 -4 -21 -142 -21 -79 0 -252 -3 -385 -7 l-243 -6 0 31 c0 17 4 33
9 36 4 3 6 -6 3 -19 -3 -16 0 -25 8 -25 7 0 10 7 6 15 -4 10 3 19 19 27 26 12
60 4 50 -12 -3 -5 -2 -10 4 -10 5 0 13 5 16 11 7 10 41 27 59 28 4 1 6 -8 3
-19z m-6809 -543 l2 -177 -25 0 -25 0 0 173 c0 96 3 177 7 181 4 4 14 5 23 4
13 -3 15 -30 18 -181z m2852 3 c0 -173 -1 -180 -20 -180 -19 0 -20 7 -20 180
0 173 1 180 20 180 19 0 20 -7 20 -180z m-2852 -498 c3 -82 3 -82 -23 -82 -25
0 -25 1 -25 78 0 82 4 95 30 90 12 -3 16 -21 18 -86z m2852 -7 l0 -95 234 0
234 0 6 -25 c10 -41 44 -50 134 -37 108 17 130 16 137 -7 14 -44 24 -138 19
-168 -6 -32 -6 -32 -54 -26 -27 3 -70 0 -96 -6 -34 -9 -137 -10 -385 -5 l-339
7 0 134 0 133 35 0 35 0 0 95 c0 88 1 95 20 95 19 0 20 -7 20 -95z m3638 -369
l2 -448 -247 7 c-137 4 -251 9 -254 11 -4 2 -6 36 -5 76 l1 73 223 -4 222 -4
0 122 0 121 -103 0 c-57 0 -159 3 -225 7 l-122 6 0 244 0 243 253 -2 252 -3 3
-449z m-7488 134 c0 -133 -1 -140 -20 -140 -19 0 -20 7 -20 140 0 133 1 140
20 140 19 0 20 -7 20 -140z m2660 5 l0 -135 -680 0 -680 0 0 135 0 135 680 0
680 0 0 -135z m3805 120 c6 -1 11 -62 13 -145 l4 -143 -474 6 c-260 4 -668 10
-905 14 l-433 6 0 107 c0 83 3 110 15 120 8 7 15 21 15 31 0 18 28 18 878 13
482 -3 882 -7 887 -9z m-7835 -140 l0 -145 -155 0 -155 0 0 138 c0 76 3 142 7
145 3 4 73 7 155 7 l148 0 0 -145z m4030 -391 l0 -57 78 6 c42 4 148 9 235 13
133 6 157 4 157 -8 0 -8 -6 -21 -12 -30 -12 -14 -127 -16 -1139 -21 l-1125 -4
36 36 c20 20 23 24 5 9 -70 -62 -157 -59 -193 9 -25 46 -30 46 293 38 l305 -7
0 36 0 36 680 0 680 0 0 -56z m1437 29 c-3 -10 -10 -41 -17 -69 l-11 -51 -265
-6 c-146 -3 -301 -4 -345 0 l-80 6 7 31 c3 17 8 32 9 34 2 2 80 6 174 9 l171
6 0 29 0 28 181 0 c167 0 180 -1 176 -17z m-4097 -19 l0 -26 304 7 c167 4 309
5 315 1 14 -9 -12 -62 -37 -74 -9 -5 -199 -12 -422 -16 -223 -4 -428 -9 -456
-12 l-51 -5 -12 45 c-6 25 -11 47 -11 50 0 3 74 6 165 6 l165 0 0 25 c0 18 5
25 20 25 15 0 20 -7 20 -26z m5815 11 c363 -8 661 -14 663 -15 1 0 2 -34 2
-76 l0 -77 -332 7 c-183 4 -529 11 -768 16 -239 5 -509 10 -599 10 l-163 0 7
68 c4 37 9 70 12 75 6 11 439 8 1178 -8z m-7183 -31 l3 -27 115 2 c63 0 204 4
313 7 114 4 197 3 197 -2 0 -28 -42 -74 -77 -84 -42 -12 -432 -29 -695 -30
l-168 0 0 75 0 74 93 4 c238 8 215 10 219 -19z m4748 -26 c0 -7 -3 -23 -6 -35
-6 -21 -12 -23 -80 -23 -71 0 -75 1 -84 26 -6 14 -8 30 -4 35 9 15 174 11 174
-3z m-2285 -379 c-85 -16 -167 -20 -555 -24 -250 -3 -538 -9 -640 -14 -102 -4
-188 -6 -192 -4 -5 2 -8 10 -8 18 0 10 28 15 113 19 114 7 943 22 1227 23
l155 1 -100 -19z m2874 15 c18 -4 30 -12 28 -18 -6 -20 -191 -18 -307 3 l-105
19 176 1 c97 1 191 -2 208 -5z m1866 -39 c319 -9 595 -18 613 -21 24 -4 32
-10 32 -25 0 -18 -5 -19 -92 -14 -133 8 -1009 34 -1368 40 -376 7 -430 11
-430 32 0 19 183 17 1245 -12z m-6492 -10 c4 -8 3 -16 -1 -19 -4 -2 -122 -6
-262 -10 -258 -6 -430 -12 -642 -22 -112 -5 -118 -4 -118 14 0 27 37 30 415
38 171 3 312 8 314 10 2 2 68 4 147 4 115 0 143 -3 147 -15z m7964 -42 l180
-6 6 -271 c3 -149 5 -272 3 -273 -4 -4 -409 16 -463 23 l-43 5 0 125 0 126
183 -8 c100 -4 200 -8 222 -8 l40 -1 0 120 0 120 -140 6 c-77 4 -177 7 -222 8
-76 1 -83 3 -83 21 0 23 19 24 317 13z m-5147 -162 c0 -13 -40 -61 -51 -61
-10 0 -12 53 -2 63 9 10 53 8 53 -2z m1619 -15 c15 -18 27 -86 15 -86 -11 0
-94 82 -94 92 0 14 67 9 79 -6z m182 -7 c-24 -5 -61 -20 -82 -34 -42 -27 -50
-24 -42 18 5 27 6 27 87 26 74 -1 77 -2 37 -10z m-4201 -20 c0 -17 -59 -71
-73 -67 -6 3 -13 19 -15 36 -3 28 0 31 30 35 18 2 39 5 46 5 6 1 12 -3 12 -9z
m90 -13 c0 -49 -16 -72 -60 -85 -23 -7 -44 -10 -47 -8 -9 10 19 52 55 84 44
39 52 40 52 9z m-683 -14 c-10 -10 -14 -22 -10 -27 5 -4 2 -5 -4 -1 -7 4 -29
-5 -50 -20 -68 -50 -68 -58 0 -12 15 11 27 17 27 14 0 -3 -15 -16 -34 -29 -52
-35 -170 -36 -296 -3 -110 29 -170 52 -170 66 0 6 41 11 98 11 86 2 368 13
431 17 23 2 23 1 8 -16z m751 -9 c2 -11 -4 -23 -12 -26 -20 -8 -27 4 -19 32 7
26 27 23 31 -6z m-284 -81 c-4 -18 -12 -32 -18 -32 -6 0 -40 -14 -74 -30 -75
-35 -106 -30 -34 6 27 13 67 40 88 58 21 19 40 33 42 32 1 -2 -1 -17 -4 -34z
m4776 -772 c0 -13 -20 -13 -40 0 -12 8 -9 10 13 10 15 0 27 -4 27 -10z m-3910
-10 c0 -5 -15 -10 -34 -10 -19 0 -36 -5 -38 -11 -4 -13 -78 -2 -78 12 0 4 26
10 58 12 31 2 65 4 75 5 9 1 17 -2 17 -8z m3980 -100 c0 -5 -2 -10 -4 -10 -3
0 -8 5 -11 10 -3 6 -1 10 4 10 6 0 11 -4 11 -10z"/>
<path d="M3218 2514 c-20 -14 -62 -36 -95 -50 -32 -13 -51 -24 -43 -24 20 0
135 55 167 80 36 28 15 24 -29 -6z"/>
<path d="M2785 2344 l-50 -14 44 5 c24 3 51 10 60 15 21 12 7 11 -54 -6z"/>
</g>
</svg>
